<svg width="5421" height="1671" viewBox="0 0 5421 1671" fill="none" xmlns="http://www.w3.org/2000/svg">
<path d="M418.625 1280.71C304.925 1280.71 212.414 1256.93 141.092 1209.39C70.8045 1160.8 25.8411 1095.17 6.20186 1012.48L232.57 896.191C259.444 993.354 328.698 1041.94 440.332 1041.94C535.427 1041.94 588.66 1011.44 600.03 950.458C606.231 919.448 595.378 895.158 567.47 877.586C540.595 858.98 492.531 837.791 423.277 814.017C320.946 779.907 244.457 736.494 193.808 683.778C144.193 630.028 127.655 555.089 144.193 458.96C160.731 357.663 207.245 281.174 283.735 229.492C360.225 177.81 448.601 151.969 548.864 151.969C637.758 151.969 714.764 173.158 779.883 215.538C846.037 257.917 893.067 318.385 920.976 396.942L703.911 511.676C665.666 431.052 606.748 390.74 527.158 390.74C489.947 390.74 459.971 398.492 437.231 413.997C415.524 429.502 402.087 449.141 396.919 472.915C390.717 502.89 400.537 527.698 426.378 547.337C453.252 565.943 499.249 587.132 564.369 610.906C584.008 618.141 600.03 624.343 612.433 629.512C625.871 633.646 641.892 639.848 660.498 648.117C679.103 655.353 694.091 662.588 705.461 669.824C717.865 676.025 731.819 684.295 747.324 694.631C763.862 703.934 776.783 713.753 786.085 724.09C796.422 734.426 806.758 746.313 817.095 759.751C828.465 772.154 836.734 786.108 841.902 801.613C848.104 816.084 853.272 832.106 857.407 849.677C861.541 866.216 863.092 884.821 862.058 905.494C862.058 926.167 859.991 948.39 855.856 972.164C838.284 1071.39 790.22 1147.88 711.663 1201.63C634.14 1254.35 536.461 1280.71 418.625 1280.71ZM1203.79 1280.71C1090.09 1280.71 997.578 1256.93 926.257 1209.39C855.969 1160.8 811.006 1095.17 791.367 1012.48L1017.73 896.191C1044.61 993.354 1113.86 1041.94 1225.5 1041.94C1320.59 1041.94 1373.82 1011.44 1385.19 950.458C1391.4 919.448 1380.54 895.158 1352.63 877.586C1325.76 858.98 1277.7 837.791 1208.44 814.017C1106.11 779.907 1029.62 736.494 978.973 683.778C929.358 630.028 912.82 555.089 929.358 458.96C945.896 357.663 992.41 281.174 1068.9 229.492C1145.39 177.81 1233.77 151.969 1334.03 151.969C1422.92 151.969 1499.93 173.158 1565.05 215.538C1631.2 257.917 1678.23 318.385 1706.14 396.942L1489.08 511.676C1450.83 431.052 1391.91 390.74 1312.32 390.74C1275.11 390.74 1245.14 398.492 1222.4 413.997C1200.69 429.502 1187.25 449.141 1182.08 472.915C1175.88 502.89 1185.7 527.698 1211.54 547.337C1238.42 565.943 1284.41 587.132 1349.53 610.906C1369.17 618.141 1385.19 624.343 1397.6 629.512C1411.04 633.646 1427.06 639.848 1445.66 648.117C1464.27 655.353 1479.26 662.588 1490.63 669.824C1503.03 676.025 1516.98 684.295 1532.49 694.631C1549.03 703.934 1561.95 713.753 1571.25 724.09C1581.59 734.426 1591.92 746.313 1602.26 759.751C1613.63 772.154 1621.9 786.108 1627.07 801.613C1633.27 816.084 1638.44 832.106 1642.57 849.677C1646.71 866.216 1648.26 884.821 1647.22 905.494C1647.22 926.167 1645.16 948.39 1641.02 972.164C1623.45 1071.39 1575.38 1147.88 1496.83 1201.63C1419.3 1254.35 1321.63 1280.71 1203.79 1280.71Z" fill="#3375CC"/>
<path d="M2719.28 699.122C2618.09 699.122 2565.02 657.162 2565.02 576.327C2565.02 569.54 2565.64 562.752 2566.25 555.347H2615.62C2615.62 624.458 2647.09 658.396 2724.22 658.396C2800.12 658.396 2853.19 625.075 2853.19 558.432C2853.19 522.026 2834.67 505.365 2772.97 496.11L2708.18 486.237C2639.07 475.747 2607.6 446.128 2607.6 388.741C2607.6 299.268 2675.47 247.435 2782.22 247.435C2877.25 247.435 2926.62 292.48 2926.62 368.379C2926.62 373.932 2926.62 379.486 2926 385.039H2877.87C2877.87 322.099 2847.63 288.161 2777.29 288.161C2711.88 288.161 2660.66 318.397 2660.66 381.954C2660.66 419.594 2679.79 435.021 2731.63 443.043L2796.42 452.916C2867.38 463.406 2906.25 491.79 2906.25 552.879C2906.25 645.438 2838.99 699.122 2719.28 699.122ZM2950.17 692.951H2898.95L2976.08 253.606H3027.3L2950.17 692.951ZM3123.84 699.122C3039.3 699.122 2991.79 647.906 2991.79 568.305C2991.79 458.469 3052.26 368.379 3165.8 368.379C3258.36 368.379 3294.76 436.255 3294.76 499.195C3294.76 517.09 3292.3 532.516 3289.83 541.772H3043.62C3041.77 552.262 3041.77 561.518 3041.77 570.157C3041.77 631.245 3073.86 663.332 3126.92 663.332C3176.29 663.332 3212.08 636.799 3230.59 596.073H3276.87C3255.89 659.63 3205.29 699.122 3123.84 699.122ZM3163.33 404.168C3108.41 404.168 3063.37 438.106 3049.17 507.217H3244.17C3244.78 502.897 3244.78 499.195 3244.78 494.875C3244.78 439.34 3214.55 404.168 3163.33 404.168ZM3695.13 692.951H3645.76L3681.55 489.322C3682.79 481.3 3683.4 472.661 3683.4 465.257C3683.4 433.17 3669.83 409.721 3634.04 409.721C3591.46 409.721 3554.44 444.277 3543.95 507.834L3511.25 692.951H3462.5L3497.67 489.322C3499.52 480.683 3500.14 472.044 3500.14 465.257C3500.14 433.787 3486.56 409.721 3451.39 409.721C3408.81 409.721 3373.02 444.277 3361.92 507.834L3329.83 692.951H3280.47L3336 374.549H3384.75L3375.49 425.765C3394.62 391.827 3429.18 368.379 3466.2 368.379C3516.18 368.379 3542.72 393.678 3550.12 432.553C3572.33 390.593 3608.12 368.379 3648.85 368.379C3701.92 368.379 3734.62 400.466 3734.62 454.767C3734.62 463.406 3734 472.661 3732.15 482.534L3695.13 692.951ZM3829.23 699.122C3768.76 699.122 3726.8 667.652 3726.8 612.734C3726.8 551.028 3763.2 520.792 3837.25 514.004L3914.38 507.834C3950.17 504.748 3973 495.493 3973 459.703C3973 425.765 3946.47 405.402 3903.27 405.402C3853.29 405.402 3823.67 426.999 3816.89 471.427H3767.52C3772.46 406.636 3818.12 368.379 3906.98 368.379C3976.7 368.379 4023.6 398.614 4023.6 456.001C4023.6 462.788 4022.98 470.193 4022.37 476.364L3998.3 611.499C3993.37 638.033 3990.9 658.396 3990.9 672.588C3990.9 681.844 3992.13 688.632 3993.98 692.951H3948.94C3944 685.546 3942.15 675.674 3942.15 665.801C3942.15 658.396 3942.77 649.757 3944.62 639.884C3920.55 678.142 3884.15 699.122 3829.23 699.122ZM3844.04 663.332C3905.74 663.332 3946.47 620.138 3956.34 560.284L3962.51 522.643C3953.87 533.133 3935.36 538.07 3908.21 540.538L3846.51 546.091C3798.99 549.794 3778.01 571.391 3778.01 608.414C3778.01 641.735 3803.31 663.332 3844.04 663.332ZM4273.09 692.951H4221.87L4257.66 490.556C4258.9 481.917 4259.52 474.513 4259.52 467.108C4259.52 429.467 4237.92 409.721 4198.43 409.721C4149.06 409.721 4106.48 446.128 4095.38 510.919L4063.91 692.951H4012.69L4068.23 374.549H4116.97L4107.72 425.765C4132.4 389.359 4170.66 368.379 4213.24 368.379C4274.94 368.379 4312.58 397.997 4312.58 455.384C4312.58 463.406 4311.97 473.278 4310.11 482.534L4273.09 692.951ZM2730.39 1364.12C2618.7 1364.12 2560.08 1319.08 2560.08 1235.16C2560.08 1228.37 2560.7 1221.58 2561.32 1214.79H2656.96C2656.96 1267.24 2687.2 1290.07 2741.5 1290.07C2798.27 1290.07 2835.29 1264.78 2835.29 1225.9C2835.29 1198.75 2817.4 1185.17 2762.48 1177.15L2712.5 1169.75C2638.45 1159.26 2601.43 1125.32 2601.43 1062.38C2601.43 967.353 2674.86 912.435 2793.33 912.435C2896.38 912.435 2953.15 962.417 2953.15 1039.55C2953.15 1044.49 2953.15 1050.04 2952.53 1055.59H2859.97C2859.97 1013.02 2834.06 986.482 2782.22 986.482C2734.71 986.482 2700.77 1008.7 2700.77 1047.57C2700.77 1074.1 2713.73 1085.21 2761.86 1092L2812.46 1098.79C2887.12 1109.89 2934.64 1146.3 2934.64 1212.94C2934.64 1306.74 2864.91 1364.12 2730.39 1364.12ZM3250.76 1357.95H2921.25L2998.38 918.606H3327.89L3313.7 999.44H3082.92L3066.25 1095.7H3277.29L3263.1 1172.22H3052.68L3034.17 1277.12H3264.33L3250.76 1357.95ZM3758.14 1357.95H3663.73L3725.43 1007.46L3552.04 1357.95H3468.74L3418.75 1007.46L3357.67 1357.95H3263.26L3340.39 918.606H3492.8L3533.53 1206.77L3675.45 918.606H3835.27L3758.14 1357.95ZM4188.97 1215.41C4188.97 1314.76 4127.88 1357.95 4014.34 1357.95H3786.65L3863.78 918.606H4062.47C4153.8 918.606 4211.8 949.459 4211.8 1019.19C4211.8 1087.06 4180.33 1117.3 4118.01 1132.11C4164.9 1144.45 4188.97 1179.62 4188.97 1215.41ZM4089.62 1215.41C4089.62 1185.17 4071.73 1170.37 4028.53 1170.37H3919.31L3898.95 1283.9H4021.75C4066.79 1283.9 4089.62 1256.75 4089.62 1215.41ZM4112.45 1034.61C4112.45 1005.61 4092.71 992.653 4047.66 992.653H3949.55L3931.04 1097.55H4044.58C4087.15 1097.55 4112.45 1074.72 4112.45 1034.61ZM4586.63 1357.95H4490.37L4476.18 1276.5H4294.15L4251.57 1357.95H4144.82L4381.77 918.606H4503.95L4586.63 1357.95ZM4465.07 1200.6L4432.37 1007.46L4331.79 1200.6H4465.07ZM5028.22 1090.76C5028.22 1252.43 4943.07 1357.95 4771.52 1357.95H4584.56L4661.69 918.606H4832.61C4957.88 918.606 5028.22 980.312 5028.22 1090.76ZM4928.87 1098.17C4928.87 1032.76 4890.62 996.355 4831.38 996.355H4746.84L4696.86 1280.2H4783.25C4878.89 1280.2 4928.87 1198.13 4928.87 1098.17ZM5389.97 1357.95H5293.7L5279.51 1276.5H5097.48L5054.9 1357.95H4948.15L5185.1 918.606H5307.28L5389.97 1357.95ZM5268.41 1200.6L5235.7 1007.46L5135.12 1200.6H5268.41Z" fill="url(#paint0_linear_993_22)"/>
<path d="M2198.84 241.035V1361.27" stroke="#3375CC" stroke-width="42.7571" stroke-linecap="round"/>
<defs>
<linearGradient id="paint0_linear_993_22" x1="2478.9" y1="54.7476" x2="4690.83" y2="1625.15" gradientUnits="userSpaceOnUse">
<stop stop-color="#266AA6"/>
<stop offset="1" stop-color="#3375CC"/>
</linearGradient>
</defs>
</svg>
